<svg id="Layer_1" data-name="Layer 1" xmlns="http://www.w3.org/2000/svg" viewBox="0 0 792 612"><defs><style>.cls-1{fill:#d03027;}.cls-2{fill:#004977;}</style></defs><title>Artboard 2</title><path id="Icon" class="cls-1" d="M457.94,340.2l-.05,0c-15.86,11.22-34.64,23-54.85,35.39l-.8.46a.61.61,0,0,0-.14.85.59.59,0,0,0,.83.14l.68-.35c17.14-9,36.82-19.57,56.63-30.46l.32-.18A24.37,24.37,0,0,1,457.94,340.2ZM562,255.94c-25-27.57-185.83-2.77-254.23,12.18l-1.59.34a.62.62,0,0,0-.5.7.6.6,0,0,0,.7.49l1.58-.31c56.67-10.08,174.51-24.07,199.87,1.07,7.74,7.67,5.89,17.56-3.07,29.21a23.18,23.18,0,0,1,9.83,14.11C549.63,290.43,573.16,268.23,562,255.94Z"/><g id="Wordmark"><path class="cls-2" d="M468.05,333c.33,9.71,6.46,17.65,14.47,17.65,15.51,0,22.11-19.05,21.66-31.78-.33-9.72-6.63-17.65-14.62-17.65C476.21,301.18,467.6,320.15,468.05,333Zm-8.19-.52c-.58-16.55,12.39-33.48,31.23-33.48,12.6,0,20.85,8.4,21.31,21.25.6,17.46-11.51,33.49-31.23,33.49C468.56,353.7,460.32,345.32,459.86,332.44Z"/><path class="cls-2" d="M281.39,328.07a18.87,18.87,0,0,1-2.62.73q-1.62.36-5.89,1a10.19,10.19,0,0,0-4.11,1.28,3,3,0,0,0-1.31,2,2,2,0,0,0,.87,2.08,6.89,6.89,0,0,0,3.8.79,12.69,12.69,0,0,0,3.91-.62,9.52,9.52,0,0,0,3.2-1.7,5,5,0,0,0,1.37-2A26.37,26.37,0,0,0,281.39,328.07Zm16.38-10.19a40.06,40.06,0,0,1-.74,5.18l-2.77,15.56a2.87,2.87,0,0,0,1.55,3.2l-.08.61-15.87,0-.14-4a31.27,31.27,0,0,1-7.62,3.26,27.57,27.57,0,0,1-7.6.93c-5.13,0-8.07-.53-10.09-2.31s-3-3-3-5.56a8.6,8.6,0,0,1,1.92-4.62,11.73,11.73,0,0,1,4.22-2.95,22.92,22.92,0,0,1,6.37-1.79c2.81-.45,6.71-.91,12-1.34a17.41,17.41,0,0,0,5.21-1.18c1.1-.43,1.52-.9,1.68-1.79.3-1.6-.21-2.51-2.34-2.93-5.71-1.12-16.42.73-21.95,2.11l3-8.1a145.28,145.28,0,0,1,21.29-1.74C294.23,310.44,297.88,313.7,297.77,317.88Z"/><path class="cls-2" d="M343.75,342.43l5.51-31.08h15.19L359,342.43Zm6.35-38.27c.46-2.56,4.49-4.63,9-4.63s7.81,2.07,7.37,4.63-4.5,4.63-9,4.63S349.64,306.71,350.1,304.16Z"/><path class="cls-2" d="M418.4,328.14a23.22,23.22,0,0,1-2.64.73c-1.06.26-3,.57-5.9,1a10,10,0,0,0-4.09,1.28,3.16,3.16,0,0,0-1.31,2,2,2,0,0,0,.86,2.07,7,7,0,0,0,3.83.78,12.94,12.94,0,0,0,3.89-.6,9.39,9.39,0,0,0,3.21-1.7,5.07,5.07,0,0,0,1.35-2A25.91,25.91,0,0,0,418.4,328.14Zm16.37-10.2a36.87,36.87,0,0,1-.75,5.18l-2.75,15.57a2.92,2.92,0,0,0,1.55,3.22l-.1.53-15.86,0-.12-4a31,31,0,0,1-7.62,3.26,27.49,27.49,0,0,1-7.64.93c-5.11,0-8-.51-10.06-2.3s-3.07-3-3-5.56a8.37,8.37,0,0,1,1.91-4.62,11.48,11.48,0,0,1,4.24-3,24,24,0,0,1,6.34-1.81c2.82-.43,6.74-.91,12-1.34A18,18,0,0,0,418.1,323c1.11-.43,1.55-.91,1.71-1.8.28-1.57-.22-2.51-2.33-2.93-5.74-1.14-16.43.72-22,2.1l3-8.1a145.52,145.52,0,0,1,21.29-1.75C431.23,310.49,434.87,313.77,434.77,317.94Z"/><path class="cls-2" d="M249.38,331.26a55.66,55.66,0,0,1-12.62,1.36c-7.26,0-13-3.61-12.71-10.21.22-4.4,5.44-13.68,18.68-13.68A21.64,21.64,0,0,1,254.54,312l1.92-10.79a36.65,36.65,0,0,0-15-2.54c-17.35.19-34,8.08-36.09,24.13-2.1,16.3,17.81,20.4,26.65,20.36a152.67,152.67,0,0,0,15.36-.74Z"/><path class="cls-2" d="M372.82,311.18l1.09-6.33,15.89-3.46-1.69,9.79h7.78l-1.48,6.25h-7.54l-4.59,25s-15.3-.1-15.35,0l4.57-24.93h-5.78l1.17-6.3Z"/><polygon class="cls-2" points="450.19 342.41 434.72 342.43 442.5 299.07 457.57 299.5 450.19 342.41"/><path class="cls-2" d="M323.66,318.64a8.72,8.72,0,0,0-5.39,1.81,8.12,8.12,0,0,0-3,5.32c-.47,2.71-.19,4.65.88,5.86a6,6,0,0,0,4.7,1.79,9.08,9.08,0,0,0,3.86-.76,7.69,7.69,0,0,0,3-2.56,10.35,10.35,0,0,0,1.66-4.1c.44-2.45.07-4.29-1.06-5.5A5.83,5.83,0,0,0,323.66,318.64ZM296,353.16l7.4-41.65h13.34l-1,5.31a12.75,12.75,0,0,1,5.56-3.95,22.79,22.79,0,0,1,8.62-1.83c3.48,0,5.63.18,8.23,1.53a11,11,0,0,1,5.39,5.9,15.48,15.48,0,0,1,.66,8.46,18.36,18.36,0,0,1-7.51,12.16c-4.07,3-7.73,3.75-13,3.77a20,20,0,0,1-4.69-.5,10.71,10.71,0,0,1-3-1.22,13.79,13.79,0,0,1-2.5-2.26L311,353.16Z"/><path class="cls-2" d="M571.79,322.45c-.09-2.5-1.35-4.19-3.93-4.19-6.24,0-12.86,12.21-14,17.13C564.08,335.39,572,329.3,571.79,322.45Zm1.33,19.13,1.2.82c-3,6.18-9.23,11.17-16.5,11.17-5.94,0-10.82-4-11.07-11.39-.49-13.32,12-25.7,22.21-25.7,4.39,0,8.45,1.92,8.63,6.64.38,10.59-14.5,13.83-24.29,14.05a12,12,0,0,0-.39,3.91c.17,4.39,2.83,8.09,8.32,8.09C566,349.17,570.72,345.35,573.12,341.58Z"/><path class="cls-2" d="M512.18,322.1c1.05-.14,2.75-.32,3.48-.32,1.12,0,2.17.21,2.22,1.31,0,.66-1.16,5.38-1.41,6.47L514.1,340c-1,4.28-2,8.75-2.91,12.29h6.08l3.42-16.55c10.45-10.87,14.46-14.42,16.93-14.42a1.77,1.77,0,0,1,1.92,1.91c.07,1.91-1.12,6.26-1.53,7.5l-3.5,12.08a24.91,24.91,0,0,0-1.32,6.9c.11,2.66,1.71,3.83,4.09,3.83,4.45,0,7.67-4.64,10.5-9.19l-.83-1.49c-1.15,1.83-3.78,5.83-5.86,5.83-.66,0-1.28-.44-1.3-1.55a17.75,17.75,0,0,1,.94-4.92l3.88-14.14c1-3.89,1.54-6.4,1.51-7.73a3.62,3.62,0,0,0-4-3.88c-4,0-9.32,2.93-20.58,15.89h-.16L522.8,326c.77-3.46,1.52-7.07,2.25-9.56a103.07,103.07,0,0,1-12.93,3.64Z"/></g><path id="Trademark" class="cls-2" d="M578.53,310.85a5.47,5.47,0,1,1,5.49,5.43A5.38,5.38,0,0,1,578.53,310.85Zm5.49,4.53a4.51,4.51,0,1,0-4.41-4.53A4.36,4.36,0,0,0,584,315.38ZM582.87,314h-1v-6.24h2.38c1.48,0,2.21.54,2.21,1.77a1.62,1.62,0,0,1-1.62,1.72l1.78,2.75h-1.07L584,311.28h-1.08Zm1.12-3.5c.81,0,1.51-.06,1.51-1,0-.77-.68-.92-1.35-.92h-1.28v1.95Z"/></svg>