<?xml version="1.0" encoding="utf-8"?>
<!-- Generator: Adobe Illustrator 25.2.3, SVG Export Plug-In . SVG Version: 6.00 Build 0)  -->
<svg version="1.1" id="Layer_1" xmlns="http://www.w3.org/2000/svg" xmlns:xlink="http://www.w3.org/1999/xlink" x="0px" y="0px"
	 viewBox="0 0 627.4 125.5" style="enable-background:new 0 0 627.4 125.5;" xml:space="preserve">
<style type="text/css">
	.st0{fill:#173159;}
	.st1{clip-path:url(#SVGID_2_);fill:url(#SVGID_3_);}
</style>
<g>
	<path class="st0" d="M185,82c-5.7,5.6-13,8.2-20.7,8.2c-20,0-28.9-13.8-29-28.2c-0.1-14.5,9.4-28.9,29-28.9
		c7.4,0,14.5,2.8,20.1,8.3l-5.9,5.7c-3.9-3.9-9.1-5.7-14.2-5.7c-14,0-20.4,10.3-20.3,20.4c0.1,10.1,6.1,20,20.3,20
		c5.1,0,10.8-2.1,14.6-6L185,82z"/>
	<polygon class="st0" points="217.3,58.4 233,34.1 243.6,34.1 243.6,34.5 221.7,66.5 221.7,89.1 212.9,89.1 212.9,66.5 191.7,34.5
		191.7,34.1 202.2,34.1 	"/>
	<path class="st0" d="M263.9,80.9h16.5c4.9,0,11.6-1.6,11.6-7.6c0-5.9-6.5-8.6-11.6-8.6h-16.6V80.9z M263.9,56.9h16.6
		c6.6,0,9.9-2.6,9.9-6.9c0-3.9-3.4-7.9-10-7.9h-16.5V56.9z M280.4,34.1c10.5,0,18.7,4.8,18.7,15.7c0,4.6-2.4,8.8-7.6,10.9
		c6.6,2,9.4,8.5,9.4,12.7c0,12-9.6,15.7-20.4,15.7h-25.2v-55H280.4z"/>
	<polygon class="st0" points="356.1,89.1 315.4,89.1 315.4,34.1 355.8,34.1 355.8,42.6 324.2,42.6 324.2,57.5 354.6,57.5
		354.6,65.7 324.2,65.7 324.2,80.4 356.1,80.4 	"/>
	<path class="st0" d="M380.1,42.1v20h16.7c7.3,0,10.5-4.6,10.5-9.8c0-5-3.2-10.1-10.5-10.1H380.1z M418.8,89.1h-10.3l-16.7-19h-11.6
		v19h-8.8V34c8.6,0,17.1,0.1,25.6,0.1c12.7,0,19.4,8.7,19.4,18c0,7.9-4.1,15.6-14.9,17.1l16.4,18.3L418.8,89.1z"/>
	<path class="st0" d="M456.3,49.5L449.2,67h14.1L456.3,49.5z M468.6,80.1h-24.6l-3.6,9h-16.5l24.7-55h15.7l24.6,55h-16.7L468.6,80.1
		z"/>
	<path class="st0" d="M512.7,46.5v13.2h11.5c4.1,0,5.9-3.1,5.9-6.4c0-3.5-2-6.8-6.1-6.8H512.7z M548.1,89.1H531l-12.8-17.8h-5.4
		v17.8h-15.6v-55H524c14.1,0,21.4,9,21.4,18.9c0,6.8-2.4,12.5-11.6,16.6l14.3,18.5V89.1z"/>
	<path class="st0" d="M607.7,35l-22.3,26c7.7,8.5,16.6,18.4,24.2,27.1v0.9h-19.3l-15.7-18.3v18.3H559v-55h15.6v18.1
		c4.7-5.8,9.8-12.3,14.5-18.1h18.6V35z"/>
	<path class="st0" d="M620.7,27.3H620v2.3h0.7c1.2,0,1.6-0.4,1.6-1.2C622.2,27.6,621.7,27.3,620.7,27.3 M623.3,33.6h-0.6
		c-0.1,0-0.2,0-0.3-0.1c-0.2-0.3-0.3-0.5-0.5-0.9c-0.5-0.8-0.8-1.3-1.2-1.8c-0.1-0.1-0.2-0.2-0.4-0.2H620v2.7c0,0.2-0.2,0.4-0.3,0.4
		h-0.4c-0.2,0-0.4-0.2-0.4-0.4v-6.4c0-0.2,0.2-0.3,0.4-0.3h1.8c1.6,0,2.4,0.9,2.4,2c0,1-0.6,1.9-1.9,2c0.4,0.2,1.2,1.3,2,2.8
		C623.6,33.3,623.6,33.6,623.3,33.6 M621,24.5c-2.9,0-5.3,2.4-5.3,5.5c0,3.1,2.3,5.5,5.3,5.5c2.9,0,5.3-2.4,5.3-5.5
		C626.3,26.9,623.9,24.5,621,24.5 M621,36.4c-3.5,0-6.4-2.8-6.4-6.4c0-3.7,2.9-6.4,6.4-6.4c3.5,0,6.4,2.8,6.4,6.4
		C627.4,33.7,624.5,36.4,621,36.4"/>
	<g>
		<defs>
			<path id="SVGID_1_" d="M107.2,93l-51.4,29.7l0-29.3l51.4-29.7V93z M28.7,79l25,14.4l0,29.3l-50.4-29L28.7,79z M53.6,2.8v29.3
				L28.7,46.5L3.2,31.9L53.6,2.8z M106.1,31.8L80.7,46.5l-25-14.4V2.8L106.1,31.8z M27.6,77.2L2.2,91.9L2.1,33.7l25.4,14.6V77.2z
				 M53.6,62.1L29.7,75.9V48.4l23.9-13.8V62.1z M55.7,34.6l23.9,13.8v27.6L55.7,62.1V34.6z M54.7,91.5L30.8,77.8L54.7,64l23.9,13.8
				L54.7,91.5z M107.7,60.9l-26,15V48.4l27-15.6v-1.8L55.2,0h-1.1L0.5,31L0,31.9l0.1,61.8l0.5,0.9l53.6,30.8l1.1,0l53.5-30.9
				l0.5-0.9V61.8L107.7,60.9z"/>
		</defs>
		<clipPath id="SVGID_2_">
			<use xlink:href="#SVGID_1_"  style="overflow:visible;"/>
		</clipPath>

			<linearGradient id="SVGID_3_" gradientUnits="userSpaceOnUse" x1="-649.2757" y1="834.5927" x2="-647.1926" y2="834.5927" gradientTransform="matrix(0 68.8392 68.8392 0 -57397.9961 44688.3672)">
			<stop  offset="0" style="stop-color:#38B1E6"/>
			<stop  offset="5.272730e-03" style="stop-color:#38B1E6"/>
			<stop  offset="0.2666" style="stop-color:#329CD7"/>
			<stop  offset="0.7878" style="stop-color:#296FB8"/>
			<stop  offset="1" style="stop-color:#296FB8"/>
		</linearGradient>
		<rect class="st1" width="109.3" height="125.5"/>
	</g>
</g>
</svg>
