<?xml version="1.0" encoding="UTF-8"?>
<svg viewBox="0 0 116 70" version="1.1" xmlns="http://www.w3.org/2000/svg" xmlns:xlink="http://www.w3.org/1999/xlink">
    <title>aws-logo</title>
    <g id="Page-1" stroke="none" stroke-width="1" fill="none" fill-rule="evenodd">
        <g id="aws-logo" fill-rule="nonzero">
            <path d="M33.0496737,25.7031915 C33.0496737,27.1595745 33.2048586,28.3404255 33.4764322,29.206383 C33.786802,30.0723404 34.1747643,31.0170213 34.7179116,32.0404255 C34.9118927,32.3553192 34.9894852,32.6702128 34.9894852,32.9457447 C34.9894852,33.3393617 34.7567078,33.7329787 34.2523568,34.1265957 L31.8081944,35.7797872 C31.4590283,36.0159574 31.1098622,36.1340426 30.7994924,36.1340426 C30.4115301,36.1340426 30.0235678,35.9372341 29.6356055,35.5829787 C29.0924583,34.9925532 28.6269036,34.362766 28.2389413,33.7329787 C27.850979,33.0638298 27.4630167,32.3159575 27.0362582,31.4106383 C24.0101523,35.0319149 20.2081218,36.8425532 15.6301668,36.8425532 C12.3712835,36.8425532 9.77193616,35.8978724 7.87092092,34.0085106 C5.96990573,32.1191489 5,29.6 5,26.4510638 C5,23.1053191 6.16388685,20.3893617 8.53045682,18.3425532 C10.8970268,16.2957447 14.0395214,15.2723404 18.035533,15.2723404 C19.3546048,15.2723404 20.7124728,15.3904255 22.1479333,15.587234 C23.5833938,15.7840426 25.0576505,16.0989362 26.6094996,16.4531915 L26.6094996,13.5797872 C26.6094996,10.5882979 25.98876,8.50212767 24.7860769,7.28191489 C23.5445976,6.06170211 21.4496012,5.47127661 18.4622915,5.47127661 C17.1044235,5.47127661 15.7077593,5.6287234 14.2722988,5.98297871 C12.8368383,6.33723403 11.440174,6.77021278 10.082306,7.32127658 C9.46156633,7.59680851 8.99601159,7.75425534 8.72443798,7.83297873 C8.45286437,7.91170213 8.25888325,7.95106382 8.10369831,7.95106382 C7.56055109,7.95106382 7.28897752,7.55744681 7.28897752,6.73085109 L7.28897752,4.80212768 C7.28897752,4.17234043 7.36656997,3.7 7.56055109,3.42446809 C7.75453225,3.14893617 8.10369831,2.87340425 8.64684554,2.59787234 C10.0047135,1.8893617 11.6341552,1.29893617 13.5351704,0.826595744 C15.4361857,0.314893617 17.4535896,0.0787234044 19.5873821,0.0787234044 C24.2041335,0.0787234044 27.5794054,1.14148936 29.7519942,3.26702128 C31.8857868,5.39255317 32.9720813,8.62021276 32.9720813,12.95 L32.9720813,25.7031915 L33.0496737,25.7031915 Z M17.2984046,31.6861702 C18.5786802,31.6861702 19.897752,31.45 21.2944163,30.9776596 C22.6910805,30.5053192 23.9325598,29.6393617 24.980058,28.4585106 C25.6007977,27.7106383 26.0663524,26.8840426 26.2991298,25.9393617 C26.5319072,24.9946809 26.6870921,23.8531915 26.6870921,22.5148936 L26.6870921,20.8617021 C25.5620015,20.5861702 24.3593183,20.35 23.117839,20.1925532 C21.8763597,20.0351064 20.6736766,19.956383 19.4709935,19.956383 C16.8716461,19.956383 14.9706309,20.4680851 13.6903553,21.5308511 C12.4100797,22.593617 11.7893401,24.0893617 11.7893401,26.0574468 C11.7893401,27.9074468 12.2548948,29.2851064 13.2248006,30.2297873 C14.1559101,31.2138298 15.5137781,31.6861702 17.2984046,31.6861702 Z M48.4517766,35.9372341 C47.7534444,35.9372341 47.2878899,35.819149 46.9775199,35.543617 C46.66715,35.3074468 46.3955766,34.756383 46.1627993,34.0085106 L37.0456853,3.5819149 C36.8129079,2.79468085 36.6965192,2.28297872 36.6965192,2.00744681 C36.6965192,1.37765958 37.0068891,1.02340425 37.6276287,1.02340425 L41.4296592,1.02340425 C42.1667876,1.02340425 42.6711385,1.14148936 42.9427121,1.41702128 C43.253082,1.65319149 43.4858594,2.20425532 43.7186367,2.95212766 L50.2364033,29.0095745 L56.288615,2.95212766 C56.4825961,2.16489362 56.7153734,1.65319149 57.0257434,1.41702128 C57.3361133,1.18085106 57.8792606,1.02340425 58.5775923,1.02340425 L61.6812907,1.02340425 C62.418419,1.02340425 62.9227701,1.14148936 63.2331401,1.41702128 C63.54351,1.65319149 63.8150834,2.20425532 63.9702684,2.95212766 L70.1000724,29.3244681 L76.8118202,2.95212766 C77.0445975,2.16489362 77.3161713,1.65319149 77.5877447,1.41702128 C77.8981147,1.18085106 78.4024658,1.02340425 79.100798,1.02340425 L82.708847,1.02340425 C83.3295869,1.02340425 83.678753,1.33829787 83.678753,2.00744681 C83.678753,2.20425532 83.6399564,2.40106383 83.6011603,2.63723404 C83.5623642,2.87340425 83.4847714,3.18829787 83.3295869,3.6212766 L73.9796957,34.0478723 C73.746918,34.8351064 73.4753446,35.3468085 73.1649746,35.5829787 C72.8546047,35.819149 72.350254,35.9765957 71.6907179,35.9765957 L68.3542423,35.9765957 C67.617114,35.9765957 67.1127629,35.8585107 66.8023929,35.5829787 C66.4920234,35.3074468 66.2204496,34.7957447 66.0652646,34.0085106 L60.051849,8.62021276 L54.07723,33.9691489 C53.8832489,34.756383 53.6504716,35.2680851 53.3401016,35.543617 C53.0297317,35.819149 52.4865845,35.9372341 51.7882522,35.9372341 L48.4517766,35.9372341 Z M98.304931,37 C96.2875271,37 94.2701232,36.7638298 92.330312,36.2914894 C90.3905004,35.819149 88.8774475,35.3074468 87.8687454,34.7170213 C87.2480059,34.362766 86.8212475,33.9691489 86.6660625,33.6148936 C86.5108775,33.2606383 86.4332853,32.8670213 86.4332853,32.512766 L86.4332853,30.5053192 C86.4332853,29.6787234 86.7436548,29.2851064 87.3255981,29.2851064 C87.5583758,29.2851064 87.7911531,29.3244681 88.0239303,29.4031915 C88.256708,29.4819149 88.6058737,29.6393617 88.9938364,29.7968085 C90.3129081,30.387234 91.7483686,30.8595745 93.2614215,31.1744681 C94.8132704,31.4893617 96.3263237,31.6468085 97.8781726,31.6468085 C100.322335,31.6468085 102.22335,31.2138298 103.542422,30.3478723 C104.861494,29.4819149 105.559826,28.2223405 105.559826,26.6085107 C105.559826,25.506383 105.21066,24.6010639 104.512328,23.8531915 C103.813996,23.1053191 102.494924,22.4361702 100.593909,21.806383 L94.9684554,20.0351064 C92.1363309,19.1297872 90.0413342,17.7914894 88.7610587,16.0202128 C87.4807831,14.2882979 86.8212475,12.3595745 86.8212475,10.3127659 C86.8212475,8.65957445 87.1704136,7.20319149 87.8687454,5.94361702 C88.5670776,4.68404254 89.498187,3.5819149 90.6620742,2.71595745 C91.8259609,1.8106383 93.1450326,1.14148936 94.696882,0.669148934 C96.248731,0.196808511 97.8781726,0 99.5852066,0 C100.438724,0 101.331037,0.0393617022 102.184554,0.157446809 C103.076867,0.275531915 103.891588,0.432978722 104.706309,0.590425532 C105.482234,0.787234043 106.219362,0.984042553 106.917694,1.22021277 C107.616026,1.45638298 108.159173,1.69255319 108.547136,1.92872341 C109.090283,2.24361702 109.478245,2.55851064 109.711023,2.91276596 C109.9438,3.22765958 110.060189,3.6606383 110.060189,4.21170213 L110.060189,6.06170211 C110.060189,6.88829787 109.749819,7.32127658 109.167875,7.32127658 C108.857506,7.32127658 108.353154,7.1638298 107.693619,6.84893618 C105.482234,5.82553193 102.999275,5.31382978 100.244743,5.31382978 C98.0333576,5.31382978 96.2875271,5.66808509 95.0848443,6.41595747 C93.8821609,7.1638298 93.2614215,8.30531914 93.2614215,9.91914893 C93.2614215,11.0212766 93.6493837,11.9659574 94.4253082,12.7138298 C95.2012326,13.4617021 96.6366932,14.2095745 98.6928937,14.8787234 L104.201958,16.65 C106.995287,17.5553191 109.01269,18.8148936 110.215373,20.4287234 C111.418057,22.0425532 112,23.8925532 112,25.9393617 C112,27.6319149 111.650834,29.1670213 110.991298,30.5053192 C110.292966,31.843617 109.361857,33.0244681 108.159173,33.9691489 C106.95649,34.9531915 105.52103,35.6617021 103.852792,36.1734043 C102.106962,36.7244681 100.283539,37 98.304931,37 Z" id="Shape" fill="#252F3E"></path>
            <path d="M104.873827,55.7150776 C92.180882,65.0463577 73.7394597,70 57.8829233,70 C35.6606241,70 15.6374065,61.82073 0.513897251,48.2270136 C-0.682094553,47.1518043 0.398156107,45.6925919 1.82563019,46.5373993 C18.1837116,55.9838801 38.3612508,61.7055289 59.2332369,61.7055289 C73.3150757,61.7055289 88.7858084,58.7871039 103.021969,52.7966526 C105.14389,51.8366445 106.957168,54.1790646 104.873827,55.7150776 Z M110.15934,49.7246263 C108.538964,47.6510087 99.4339937,48.726218 95.3058928,49.2254224 C94.0713205,49.3790233 93.8784187,48.3038145 94.9972496,47.4974073 C102.250361,42.428564 114.171699,43.8877764 115.560593,45.5773909 C116.949486,47.3054057 115.174789,59.1711071 108.384642,64.8543561 C107.342972,65.7375637 106.339882,65.2767596 106.802846,64.1247499 C108.346062,60.3231173 111.779715,51.7598441 110.15934,49.7246263 Z" id="Shape" fill="#FF9900"></path>
        </g>
    </g>
</svg>